<?xml version="1.0" encoding="UTF-8" standalone="no"?><!DOCTYPE svg PUBLIC "-//W3C//DTD SVG 1.1//EN" "http://www.w3.org/Graphics/SVG/1.1/DTD/svg11.dtd"><svg width="100%" height="100%" viewBox="0 0 700 700" version="1.1" xmlns="http://www.w3.org/2000/svg" xmlns:xlink="http://www.w3.org/1999/xlink" xml:space="preserve" xmlns:serif="http://www.serif.com/" style="fill-rule:evenodd;clip-rule:evenodd;stroke-linejoin:round;stroke-miterlimit:2;"><path d="M699.91,349.368c0,56.265 -0.06,112.529 0.09,168.793c0.01,5.439 -2.207,8.715 -6.681,10.98c-41.853,21.161 -83.496,42.737 -125.589,63.392c-56.963,27.955 -113.226,57.316 -170.049,85.544c-13.961,6.936 -27.932,13.861 -41.863,20.868c-3.215,1.617 -6.151,1.264 -9.267,-0.304c-32.666,-16.419 -65.231,-33.04 -98.077,-49.085c-28.801,-14.074 -57.102,-29.169 -85.963,-43.091c-27.862,-13.437 -55.095,-28.147 -82.977,-41.493c-23.678,-11.334 -46.826,-23.749 -70.484,-35.103c-4.304,-2.063 -5.592,-5.298 -6.022,-9.474c-0.05,-0.495 0,-1.011 -0.01,-1.516c-1.288,-66.112 -0.519,-132.244 -1.278,-198.356c-0.21,-18.269 0.32,-36.599 -0.849,-54.838c-1.767,-27.551 -0.25,-55.102 -0.869,-82.653c-0.149,-6.561 2.637,-10.99 8.629,-13.922c21.111,-10.343 42.002,-21.14 63.144,-31.423c29.38,-14.296 58.24,-29.684 87.64,-43.899c29.58,-14.296 58.541,-29.866 88.15,-44.071c23.968,-11.496 47.476,-23.921 71.294,-35.7c8.768,-4.337 17.875,-7.967 26.214,-13.214c1.727,-1.092 3.924,-1.072 6.221,0.071c21.601,10.777 43.222,21.525 64.972,31.999c20.582,9.908 41.034,20.11 61.556,30.159c21.391,10.475 42.742,21.02 64.153,31.444c21.121,10.282 42.222,20.584 63.254,31.048c21.471,10.687 42.941,21.374 64.622,31.595c7.999,3.772 15.749,8.079 23.877,11.546c5.263,2.245 6.172,6.441 6.172,11.405c-0.01,56.436 -0.01,112.872 -0.01,169.298Zm-10.985,0.475c0,-54.414 -0.06,-108.828 0.11,-163.232c0.01,-4.387 -1.408,-6.399 -5.203,-8.27c-36.81,-18.188 -73.19,-37.247 -110.1,-55.243c-38.548,-18.795 -76.456,-38.885 -114.994,-57.72c-35.392,-17.299 -70.514,-35.154 -105.686,-52.908c-3.026,-1.526 -5.263,-1.486 -8.239,0.051c-37.529,19.361 -75.437,37.954 -112.836,57.589c-38.128,20.018 -76.896,38.763 -115.064,58.721c-33.304,17.41 -67.009,34.061 -100.603,50.895c-3.295,1.648 -4.434,3.529 -4.404,7.27c0.25,25.225 -0.03,50.44 1.019,75.656c0.929,22.333 -0.22,44.698 0.849,67.072c1.338,27.864 -0.49,55.819 1.108,83.744c0.689,12.092 0.01,24.255 0.14,36.377c0.25,22.526 0.719,45.052 0.889,67.578c0.03,3.427 1.747,4.59 4.294,5.854c21.451,10.606 42.702,21.616 64.203,32.131c43.9,21.474 87.171,44.243 131.031,65.798c43.861,21.555 87.411,43.758 131.052,65.758c2.736,1.375 4.813,1.587 7.739,0.121c28.102,-14.043 55.904,-28.693 84.216,-42.312c29.2,-14.043 57.751,-29.451 86.962,-43.515c28.601,-13.77 56.593,-28.784 85.164,-42.645c24.676,-11.981 48.963,-24.771 73.55,-36.964c3.705,-1.84 4.903,-3.963 4.893,-8.058c-0.13,-54.586 -0.09,-109.162 -0.09,-163.748Z" style="fill-rule:nonzero;"/><path d="M347.454,38.686l309.521,158.586l-0,317.172l-309.521,158.586l-309.522,-158.586l0,-317.172l309.522,-158.586Z" style="fill:#fefac3;"/><path d="M689.811,350.346c0,54.677 -0.04,109.364 0.09,164.041c0.01,4.102 -1.19,6.24 -4.899,8.073c-24.608,12.216 -48.927,25.029 -73.645,37.032c-28.598,13.887 -56.636,28.929 -85.273,42.724c-29.248,14.09 -57.826,29.517 -87.074,43.596c-28.348,13.644 -56.186,28.321 -84.323,42.39c-2.93,1.469 -5.02,1.256 -7.75,-0.121c-43.697,-22.041 -87.303,-44.285 -131.22,-65.88c-43.917,-21.595 -87.243,-44.406 -131.2,-65.92c-21.528,-10.534 -42.807,-21.565 -64.285,-32.19c-2.55,-1.266 -4.27,-2.431 -4.3,-5.865c-0.17,-22.568 -0.64,-45.135 -0.89,-67.703c-0.13,-12.145 0.55,-24.34 -0.14,-36.444c-1.6,-27.967 0.23,-55.974 -1.11,-83.9c-1.07,-22.425 0.07,-44.821 -0.85,-67.196c-1.05,-25.262 -0.77,-50.534 -1.02,-75.796c-0.04,-3.748 1.11,-5.632 4.41,-7.283c33.647,-16.865 67.385,-33.547 100.732,-50.99c38.218,-19.985 77.035,-38.764 115.212,-58.83c37.447,-19.67 75.404,-38.298 112.981,-57.695c2.98,-1.54 5.22,-1.58 8.25,-0.051c35.217,17.797 70.384,35.675 105.822,53.006c38.577,18.871 76.544,38.997 115.141,57.827c36.957,18.03 73.384,37.123 110.242,55.345c3.799,1.874 5.219,3.9 5.209,8.286c-0.17,54.525 -0.11,109.03 -0.11,163.544Zm-24.988,-95c0,-18.567 -0.08,-37.124 0.07,-55.69c0.03,-3.495 -0.96,-5.399 -4.21,-6.969c-15.438,-7.425 -30.777,-15.082 -46.076,-22.79c-45.787,-23.054 -91.373,-46.493 -136.86,-70.144c-23.908,-12.429 -47.586,-25.323 -72.024,-36.729c-17.039,-7.951 -33.608,-16.915 -50.417,-25.373c-1.479,-0.75 -2.649,-1.965 -4.929,-0.851c-22.968,11.254 -46.077,22.234 -69.085,33.396c-27.528,13.35 -54.996,26.822 -82.504,40.212c-12.559,6.118 -24.848,12.783 -37.557,18.618c-26.948,12.367 -53.836,24.907 -80.584,37.72c-16.209,7.769 -32.097,16.227 -48.186,24.26c-2.62,1.306 -3.55,2.978 -3.49,5.905c0.19,8.731 0.33,17.452 0.93,26.184c0.98,14.261 -0.24,28.564 0.93,42.896c1.26,15.407 -0.2,30.924 1.05,46.422c1.18,14.576 -0.04,29.232 0.93,43.899c1.29,19.296 -0.52,38.714 1.13,58.071c0.92,10.868 0.71,21.878 0.76,32.757c0.1,23.398 2.459,46.695 2.259,70.073c-0.03,3.535 1.05,5.369 4.26,6.928c22.758,11.001 45.407,22.224 68.105,33.366c20.598,10.119 41.207,20.207 61.815,30.316c22.249,10.919 44.557,21.717 66.705,32.818c33.938,17.017 67.785,34.226 101.603,51.476c2.809,1.429 4.919,1.52 7.819,0.132c17.069,-8.205 33.698,-17.3 50.796,-25.475c30.018,-14.332 59.706,-29.384 89.524,-44.152c30.117,-14.91 60.245,-29.8 90.333,-44.771c27.568,-13.715 55.046,-27.622 82.674,-41.205c4.039,-1.985 5.419,-4.264 5.369,-8.823c-0.74,-67.621 1.02,-135.253 -1.03,-202.865c-0.54,-16.521 -0.11,-33.072 -0.11,-49.612Z" style="fill:#0d6d17;fill-rule:nonzero;"/><path d="M664.872,255.06c0,16.544 -0.43,33.097 0.07,49.621c2.05,67.632 0.29,135.265 1.03,202.898c0.05,4.558 -1.33,6.838 -5.37,8.823c-27.63,13.586 -55.11,27.495 -82.68,41.212c-30.09,14.973 -60.22,29.866 -90.34,44.778c-29.82,14.771 -59.51,29.815 -89.53,44.16c-17.1,8.165 -33.72,17.273 -50.8,25.479c-2.9,1.398 -5.01,1.306 -7.82,-0.132c-33.82,-17.253 -67.67,-34.465 -101.61,-51.484c-22.15,-11.114 -44.46,-21.903 -66.71,-32.824c-20.6,-10.121 -41.21,-20.211 -61.82,-30.321c-22.69,-11.144 -45.35,-22.379 -68.11,-33.371c-3.21,-1.55 -4.29,-3.394 -4.26,-6.929c0.2,-23.382 -2.16,-46.683 -2.26,-70.085c-0.04,-10.88 0.16,-21.882 -0.76,-32.762c-1.64,-19.36 0.16,-38.781 -1.13,-58.08c-0.98,-14.669 0.24,-29.328 -0.93,-43.906c-1.25,-15.5 0.21,-31.031 -1.05,-46.429c-1.17,-14.335 0.05,-28.64 -0.93,-42.904c-0.6,-8.743 -0.74,-17.455 -0.93,-26.188c-0.06,-2.928 0.87,-4.599 3.49,-5.906c16.09,-8.034 31.98,-16.493 48.19,-24.263c26.75,-12.815 53.63,-25.357 80.59,-37.727c12.71,-5.835 25,-12.501 37.56,-18.62c27.51,-13.393 54.98,-26.867 82.51,-40.219c23.02,-11.164 46.12,-22.146 69.09,-33.401c2.28,-1.114 3.45,0.101 4.93,0.851c16.81,8.459 33.38,17.425 50.42,25.377c24.44,11.408 48.12,24.294 72.03,36.734c45.49,23.666 91.09,47.098 136.87,70.156c15.31,7.709 30.64,15.368 46.08,22.794c3.25,1.56 4.24,3.474 4.21,6.97c-0.11,18.569 -0.03,37.139 -0.03,55.698Zm-11,66.286c0,-38.315 -0.05,-76.619 0.09,-114.933c0.01,-3.323 -0.98,-4.792 -3.9,-6.231c-16.22,-8.013 -32.3,-16.3 -48.41,-24.526c-18.75,-9.574 -37.47,-19.239 -56.24,-28.782c-62.3,-31.668 -124.65,-63.225 -186.86,-95.056c-4.97,-2.543 -8.93,-2.452 -13.71,-0.091c-25.63,12.623 -51.38,25.023 -77.05,37.554c-13.91,6.798 -27.72,13.808 -41.65,20.566c-15.09,7.314 -30.35,14.294 -45.4,21.689c-16.92,8.318 -33.9,16.524 -50.91,24.659c-29.13,13.929 -58.05,28.315 -87.1,42.427c-2.68,1.297 -3.86,2.827 -3.83,6.018c0.04,4.528 0.85,8.955 1.07,13.433c0.63,12.734 -0.41,25.479 0.87,38.254c1.23,12.319 -0.29,24.789 1.03,37.23c1.14,10.809 -0.16,21.741 0.97,32.672c1.2,11.65 -0.14,23.432 1.02,35.204c1.23,12.501 -0.35,25.124 0.99,37.737c1.2,11.306 -0.16,22.763 1.01,34.191c1.21,11.822 0.29,23.777 0.85,35.711c0.64,13.717 1.37,27.494 1.26,41.262c-0.02,2.766 0.59,4.215 3.37,5.532c19.36,9.208 38.6,18.701 57.85,28.173c21.74,10.688 43.44,21.477 65.19,32.155c20.87,10.252 41.79,20.373 62.66,30.625c23.73,11.661 47.42,23.402 71.15,35.083c11.3,5.562 22.66,11.012 33.95,16.614c1.92,0.952 3.38,1.155 5.44,0.071c6.15,-3.211 12.51,-6.007 18.75,-9.037c26.87,-13.048 53.26,-27.069 80.17,-40.056c27.34,-13.191 54.16,-27.465 81.45,-40.777c25.26,-12.329 50.22,-25.286 75.34,-37.899c15.74,-7.902 31.51,-15.733 47.32,-23.472c3.04,-1.49 4.51,-3.121 4.41,-6.98c-0.56,-22.703 -0.34,-45.406 -0.88,-68.119c-0.91,-36.957 -0.27,-73.934 -0.27,-110.901Z" style="fill-rule:nonzero;"/><path d="M246.022,351.384c4.02,-6.91 5.83,-14.48 11.52,-19.99c2.57,-2.49 5,-3.42 8.72,-2.03c6.09,2.28 11.57,5.5 17.09,8.81c5.25,3.14 8.55,1.56 8.45,-4.64c-0.26,-15.67 1.29,-31.35 -1.54,-47.04c-1.32,-7.3 -1.1,-14.97 -2.22,-22.46c-1.96,-13.18 -2.16,-26.66 -5.27,-39.63c-2,-8.33 -5.88,-16.2 -8.65,-24.37c-4.17,-12.3 -8.27,-24.63 -12.11,-37.03c-2.66,-8.59 -4.51,-17.43 -7.39,-25.94c-1.3,-3.82 -0.34,-6.36 2.5,-7.97c2.45,-1.39 5.19,-0.91 7.54,1.55c6.2,6.51 12.74,12.71 19.01,19.15c7.79,8 17.05,13.29 27.96,15.61c4.03,0.86 7.41,0.14 9.23,-4.28c1.09,-2.66 2.59,-5.17 4.12,-7.62c3.65,-5.83 9.46,-7.77 15.86,-7.9c10.83,-0.22 21.69,-0.53 32.48,0.13c6,0.37 9.26,-2.06 12.48,-6.49c5.63,-7.75 11.53,-15.33 17.71,-22.66c6.04,-7.17 8.92,-6.79 15.44,1.19c6.19,7.57 12.38,15.14 18.48,22.79c1.44,1.81 3.15,2.03 5.23,2.01c10.16,-0.07 20.33,-0.11 30.49,-0.01c9.16,0.09 18.18,1.53 27.2,3.08c6.61,1.14 9.24,6.2 11.46,11.31c4.16,9.59 9.46,18.58 13.98,27.97c3.73,7.75 7.35,15.55 11.14,23.26c2.05,4.17 0.88,8.11 -1.19,11.54c-4.03,6.69 -8.78,12.9 -14.15,18.62c-2.5,2.67 -4.63,5.71 -7.32,8.16c-3.39,3.1 -2.7,6.23 -1.07,9.73c4.45,9.59 8.29,19.43 7.65,30.24c-0.88,14.81 -5.27,28.65 -11.36,42.18c-3.49,7.76 -7.82,14.69 -13.61,20.78c-1.38,1.45 -1.55,1.94 0.29,3.15c16.48,10.89 26.29,26.86 33.75,44.62c4.37,10.4 7.13,21.01 7.08,32.48c-0.09,21.37 1.4,42.93 -5.21,63.62c-6.6,20.65 -16.59,39.65 -32.36,54.97c-11.65,11.33 -26.03,17.41 -41.71,21.26c-12.18,2.99 -24.43,2.87 -36.75,2.87c-34.66,-0.01 -69.31,0.08 -103.97,-0.04c-18.24,-0.06 -36.5,-0.84 -54.47,-4.09c-17.52,-3.17 -33.84,-9.99 -49.54,-18.33c-16.8,-8.93 -27.88,-23.25 -38.26,-38.68c-5.78,-8.6 -11.77,-17.08 -16.35,-26.29c-5.91,-11.89 -10.38,-24.48 -13.37,-37.47c-4.71,-20.48 -6.02,-41.32 -4.88,-62.2c0.99,-18.12 2.44,-36.28 8.83,-53.59c2.1,-5.69 6.28,-9.61 10.82,-13.03c2.9,-2.19 6.45,-2.15 9.17,1.19c1.04,1.29 2.44,2.28 3.48,3.58c1.88,2.34 3.86,2.6 6.45,1.09c1.92,-1.12 4.04,-2.05 6.19,-2.6c3.94,-1.01 7.71,-1.15 10.11,3.2c3.2,5.79 6.01,11.75 7.71,18.14c0.42,1.58 0.55,3.46 2.03,3.99c1.28,0.46 2.02,-1.42 2.99,-2.25c3.37,-2.89 6.07,-6.43 9.83,-9c8.29,-5.66 9.41,-4.27 16.52,1.37c4.79,3.79 8.44,8.7 11.76,13.99Zm131.14,208.04c22.82,0 45.65,0.05 68.47,-0.03c6.98,-0.02 13.76,-1.75 20.27,-4.04c18.69,-6.59 30.38,-21.19 40.48,-37.1c9.5,-14.97 15.19,-31.36 16.72,-49.28c1.49,-17.45 2.39,-35.1 -0.67,-52.12c-4.55,-25.3 -18.1,-45.64 -41.12,-58.66c-6.76,-3.82 -7.13,-6.51 -1.45,-12.12c4.25,-4.21 8.56,-8.41 11.52,-13.62c7.03,-12.41 12.15,-25.34 13.94,-39.83c1.58,-12.81 -0.6,-24.37 -6.57,-35.36c-5.13,-9.46 -5.1,-9.52 2.21,-17.41c7.08,-7.64 14.9,-14.67 20.64,-23.49c2.87,-4.4 1.17,-8.36 -3.78,-9.9c-4.91,-1.52 -9.9,-0.61 -14.84,-0.98c-2.56,-0.19 -4.38,0.74 -6.13,2.55c-5.681,5.861 -11.448,11.639 -17.3,17.33c-7.1,6.91 -12.09,6.87 -19.23,0c-3.36,-3.24 -6.36,-6.89 -9.97,-9.81c-4.76,-3.84 -5.63,-11.89 -12.58,-12.86c-6.21,-0.86 -12.66,0.14 -18.96,-0.29c-4.38,-0.3 -6.48,1.58 -8.47,5.13c-4.99,8.87 -11.13,16.9 -19.66,22.72c-4.89,3.34 -8.31,3.15 -12.04,-0.62c-8.04,-8.13 -16.87,-15.57 -22.86,-25.53c-1.83,-3.05 -3.67,-2.77 -5.72,-0.21c-3.2,4 -6.73,7.76 -9.66,11.95c-4.07,5.81 -7.55,12.04 -11.61,17.86c-2.27,3.26 -5.81,3.94 -9.18,1.78c-3.48,-2.23 -4.36,-4.94 -2.05,-9.22c6.24,-11.54 15.15,-21.3 21.38,-32.8c2.08,-3.83 4.99,-5.04 9.3,-5.03c45.64,0.13 91.29,0.08 136.93,0.09c2.15,0 4.26,0.35 6.39,0.61c6.06,0.74 12.23,0.33 18.31,1.33c1.76,0.29 3.6,0.08 2.16,-2.64c-4.28,-8.04 -7.04,-16.86 -12.26,-24.39c-1.84,-2.65 -4.32,-4.49 -8.03,-5.07c-5.97,-0.94 -11.91,-0.73 -17.87,-0.83c-42.77,-0.71 -85.53,1.86 -128.29,0.81c-7.41,-0.18 -11,2.56 -14.06,8.77c-4.6,9.35 -7.84,19.31 -13,28.41c-1.56,2.75 -3.27,4.77 -6.62,3.82c-3.36,-0.95 -5.25,-3 -5.05,-6.93c0.13,-2.64 0.98,-4.86 2.17,-7.03c1.72,-3.11 0.91,-4.82 -2.48,-5.89c-7.6,-2.42 -14.69,-5.56 -20.77,-11.2c-3.06,-2.84 -5.49,-6.13 -8.5,-8.92c-0.79,-0.73 -1.52,-2.19 -2.83,-1.24c-0.82,0.59 -0.56,1.87 -0.24,2.82c1.62,4.68 3.16,9.38 4.95,14c4.64,12.01 9.39,23.99 12.86,36.4c3.88,13.89 4.23,28.33 6.26,42.51c2.7,18.81 0.8,37.88 4.46,56.61c1.32,6.74 0.66,13.99 0.1,20.94c-0.71,8.82 -3.4,16.73 -9.75,23.73c-10.75,11.85 -24.09,18.57 -39.18,22.07c-8.65,2.01 -17.75,3.64 -26.57,1.75c-13.02,-2.79 -24.91,-8.63 -36.2,-15.72c-10.02,-6.28 -18,-14.45 -24.06,-24.54c-1.77,-2.94 -2.99,-2.73 -4.15,0.45c-3.11,8.59 -4.66,17.54 -5.87,26.51c-2.08,15.38 -0.77,30.88 -1.07,46.32c-0.2,10.14 1.9,20.07 3.5,29.96c2.91,18 10.83,34.3 19.41,50.24c5.42,10.08 11.98,19.43 19.5,27.99c8.14,9.26 17.68,16.62 29.22,21.79c13.34,5.98 26.9,11.21 41.09,14.21c14.08,2.97 28.63,2.8 43,3.11c21.81,0.49 43.64,0.14 65.46,0.14Zm33.8,-414.87c3.16,0 6.32,-0.09 9.47,0.02c3.97,0.14 4.34,-1.86 2.61,-4.61c-2.88,-4.6 -5.6,-9.31 -9.39,-13.32c-2.21,-2.34 -3.84,-2.19 -5.52,0.23c-3,4.33 -6.09,8.61 -8.8,13.12c-1.51,2.52 -1.95,5.06 2.67,4.61c2.96,-0.29 5.97,-0.05 8.96,-0.05Zm-15,57.5c0.26,-1.87 -1.32,-1.52 -2.6,-1.53c-6.31,-0.01 -12.63,-0.06 -18.94,0.04c-1.13,0.02 -2.93,-0.93 -3.34,0.94c-0.33,1.52 -0.65,3.29 0.92,4.59c0.76,0.63 1.42,1.38 2.12,2.09c10.56,10.58 10.63,10.59 20.01,-1.42c0.98,-1.26 1.84,-2.65 1.83,-4.71Zm62.64,0.47c1.99,4.43 4.88,7.23 7.83,9.96c1.81,1.68 3.96,1.71 5.74,0.14c2.72,-2.41 5.21,-5.08 7.76,-7.68c0.41,-0.42 0.9,-1.11 0.83,-1.61c-0.16,-1.13 -1.24,-0.8 -1.98,-0.81c-6.56,-0.01 -13.11,0 -20.18,0Z" style="fill-rule:nonzero;"/><path d="M61.012,234.224c0.63,-6.89 -0.77,-15.33 0.88,-23.78c1.26,-6.48 2.09,-8.29 8.7,-8.79c6.46,-0.48 13,-0.41 19.47,-0.03c5.36,0.31 12.33,7.5 12.8,13.33c0.47,5.84 1.12,12.03 -3.65,16.79c-1.93,1.93 0.24,2.46 0.94,3.43c6.63,9.13 3.42,24.83 -6,29.31c-1.53,0.73 -3.04,1.07 -4.74,1.05c-6.16,-0.07 -12.33,0.01 -18.49,-0.04c-7.26,-0.06 -9.83,-2.59 -9.9,-9.77c-0.06,-6.65 -0.01,-13.32 -0.01,-21.5Zm20.37,19.29c1.16,0 2.35,-0.16 3.48,0.03c3.88,0.63 6.07,-1.48 6.93,-4.76c0.93,-3.54 -0.46,-6.63 -3.83,-8.22c-4.36,-2.06 -9.37,-1.9 -13.48,-0.39c-3.17,1.16 -0.99,5.67 -1.45,8.65c-0.58,3.78 1.27,5.13 4.87,4.72c1.14,-0.14 2.31,-0.03 3.48,-0.03Zm-8.37,-33.17c0,7.17 0,7.18 7.45,7.17c1.33,0 2.68,0.14 3.98,-0.05c3.99,-0.57 7.03,-4.12 6.53,-7.81c-0.55,-4.07 -2.51,-6.71 -7.18,-6.16c-1.31,0.15 -2.65,0.02 -3.98,0.02c-6.8,0.01 -6.8,0.01 -6.8,6.83Zm176.96,14.91c0,5.57 0.23,10.08 -0.07,14.56c-0.24,3.57 0.61,5.36 4.55,4.73c2.46,-0.39 4.85,0.45 7.28,0.86c3.51,0.59 4.09,2.98 4.18,5.68c0.1,3.13 -2.02,4.66 -4.78,5.38c-0.78,0.2 -1.66,0.04 -2.49,0.05c-8.68,0.06 -8.68,0.06 -8.68,8.99c0,2.33 0.11,4.67 -0.03,6.99c-0.18,3.06 -0.55,6.05 -4.79,6.03c-4.05,-0.01 -6.76,-1.76 -7.1,-5.88c-0.31,-3.8 -0.23,-7.66 -0.03,-11.48c0.15,-2.77 -0.66,-3.85 -3.59,-3.71c-4.65,0.23 -9.33,0.12 -13.99,0.04c-6.6,-0.11 -9.67,-4.15 -7.46,-10.24c5.59,-15.37 13.06,-29.91 20.01,-44.68c1.51,-3.21 4.41,-4.57 7.79,-3.93c4.1,0.77 7.06,3.06 8.2,7.43c1.77,6.7 0.59,13.51 1,19.18Zm-23.09,19.25c2.87,0 5.33,-0.03 7.78,0.01c1.96,0.03 3.26,-0.69 3.28,-2.82c0.03,-5.16 0,-10.32 0.03,-15.48c0,-0.92 -0.28,-1.8 -1.06,-2.08c-1.24,-0.44 -1.61,0.63 -1.98,1.56c-2.46,6.16 -6,11.88 -8.05,18.81Zm-45.43,17c5.08,0 9.74,0.1 14.39,-0.04c2.42,-0.07 4.42,0.71 6.55,1.75c2.61,1.28 3.51,3.27 3.58,5.89c0.08,2.98 -1.96,4.42 -4.35,5.33c-1.65,0.63 -3.33,1.14 -5.23,1.12c-10.65,-0.11 -21.3,-0.01 -31.94,-0.07c-5.56,-0.04 -7.65,-3.52 -5.28,-8.46c0.94,-1.97 2.25,-3.61 3.87,-5.06c8.27,-7.42 15.27,-15.88 20.55,-25.68c2.26,-4.19 4.56,-8.53 3.02,-13.53c-1.55,-5.02 -8.64,-6.09 -13.27,-2.04c-2.25,1.97 -4.13,4.35 -6.43,6.26c-2.19,1.82 -4.79,2.18 -7.27,0.41c-2.41,-1.72 -3.18,-4.29 -2.52,-7.01c2.44,-10.05 18.92,-19.35 28.82,-16.38c8.89,2.67 15.68,16.68 13.39,25.92c-2.65,10.72 -9.25,18.92 -15.63,27.37c-0.5,0.66 -1.16,1.2 -1.58,1.9c-0.32,0.52 -0.37,1.21 -0.67,2.32Zm411.44,194.27c7.23,-10.35 13.57,-20.82 17.92,-32.32c2.84,-7.5 7.88,-9.12 12.6,-4.07c2.05,2.18 1.5,4.05 0.44,6.25c-3.48,7.21 -6.82,14.49 -10.42,21.64c-0.98,1.94 -1.11,3.35 -0.03,5.28c3.34,5.98 5.78,12.44 9.95,18.01c1.95,2.6 2.86,5.77 -0.46,8.32c-3.25,2.49 -5.83,1.69 -8.5,-1.32c-4.18,-4.72 -6.27,-10.66 -9.81,-16.04c-3.39,5.03 -6.98,9.64 -9.78,14.7c-2.17,3.93 -5.3,5.35 -8.91,3.96c-3.21,-1.24 -5.02,-4.44 -5.02,-8.28c0.04,-15.14 0.02,-30.28 0.02,-45.42c0,-2 0.02,-3.99 0,-5.99c-0.05,-3.82 1.69,-6.48 5.52,-6.91c3.81,-0.42 6.42,2.53 6.45,6.97c0.08,10.81 0.03,21.63 0.03,32.45l0,2.77Zm-496.89,-7.26c-6.41,1.03 -12.33,2.16 -18.3,2.84c-2.24,0.26 -2.77,1 -2.72,3.03c0.11,4.32 -0.03,8.65 0.06,12.98c0.03,1.85 -0.48,3.52 -0.92,5.28c-0.78,3.12 -3.14,3.88 -5.58,3.66c-2.4,-0.21 -4.02,-2.08 -4.5,-4.59c-0.69,-3.55 -1.1,-7.11 -1.07,-10.76c0.12,-12.31 0.02,-24.63 0.07,-36.95c0.01,-1.6 -0.2,-3.17 0.64,-4.82c2.21,-4.32 5.36,-4.9 8.33,-1.16c2.23,2.8 2.75,6.23 2.96,9.65c0.17,2.82 0.23,5.67 -0.02,8.48c-0.29,3.22 1.41,3.81 3.87,3.2c4.31,-1.05 8.62,-1.97 13.08,-1.91c2.4,0.03 3.13,-1.35 3.1,-3.52c-0.05,-3.99 0.07,-7.99 -0.04,-11.98c-0.1,-3.77 1.34,-6.78 5.1,-7.27c3.37,-0.44 5.14,2.17 5.95,5.36c1,3.96 2.03,7.88 2,12.04c-0.08,11.48 -0.05,22.97 -0.01,34.45c0.01,2.69 -0.44,5.24 -2.06,7.4c-2.5,3.35 -5.72,3.23 -7.89,-0.35c-1.36,-2.24 -2.24,-4.62 -2.13,-7.44c0.24,-5.8 0.08,-11.6 0.08,-17.62Zm509.88,-217.71c-6.19,0.95 -12.02,1.3 -17.78,2.5c-3.03,0.63 -3.18,1.7 -3.27,4.09c-0.22,5.59 0.94,11.24 -0.92,16.77c-0.88,2.61 -2.31,4.38 -5.16,4.3c-2.85,-0.09 -4.15,-1.91 -4.89,-4.59c-1.54,-5.55 -0.87,-11.18 -0.93,-16.78c-0.11,-9.33 -0.03,-18.65 -0.03,-27.98c0,-1 -0.1,-2.01 0.02,-3c0.46,-3.68 1.32,-8.01 5.41,-8.29c3.79,-0.25 4.37,4.29 5.5,7.24c1.57,4.1 1.27,8.49 0.99,12.74c-0.25,3.82 1.55,4.06 4.49,3.55c4.02,-0.7 8.06,-1.58 12.11,-1.72c2.97,-0.1 3.65,-1.11 3.52,-3.81c-0.19,-3.99 0.05,-8 -0.08,-11.99c-0.11,-3.6 1.33,-6.42 4.77,-7.1c3.43,-0.67 4.91,2.58 5.81,5.07c1.38,3.8 2.46,7.78 2.45,11.94c-0.03,11.49 0,22.98 -0.02,34.48c-0.01,5.96 -2.77,10.47 -6.22,10.26c-3.24,-0.19 -5.74,-4.59 -5.77,-10.22c-0.02,-5.79 0,-11.6 0,-17.46Zm-543.87,81.94c-0.63,-11.69 2.13,-23.8 5.23,-35.91c1.31,-5.1 5.2,-6.38 9.37,-7.26c3.81,-0.81 5.81,2.22 7.29,4.85c5.19,9.22 10.39,18.47 14.96,28.01c2.75,5.75 7.48,10.31 9.35,16.54c0.28,0.92 0.81,1.77 0.79,2.79c-0.07,2.75 0.83,5.96 -2.5,7.44c-3.25,1.44 -4.83,-1.44 -6.5,-3.3c-2.28,-2.55 -4.88,-5.13 -6.14,-8.19c-2.16,-5.23 -5.89,-6.35 -10.9,-6.26c-8.32,0.15 -8.83,0.54 -8.95,8.97c-0.02,1.5 0.18,3.03 -0.06,4.49c-0.58,3.54 -2.8,5.87 -6.37,5.44c-3.21,-0.38 -5.87,-2.05 -5.61,-6.19c0.22,-3.49 0.04,-7 0.04,-11.42Zm18.44,-13.25c6.07,0.01 6.26,-0.27 3.51,-5.3c-0.39,-0.71 -0.65,-1.5 -1.09,-2.18c-1.25,-1.93 -1.12,-5.66 -4.19,-5.27c-2.71,0.35 -2.24,3.66 -2.77,5.88c-1.56,6.44 -1.31,6.86 4.54,6.87Zm498.45,15.33c-0.45,-12.43 1.79,-24.49 5.1,-36.37c1.22,-4.37 4.16,-7.32 8.93,-7.94c4.76,-0.61 6.78,2.8 8.53,6.17c6.76,13.07 13.7,26.03 21.32,38.62c1.67,2.76 2.96,5.8 3.12,9.18c0.11,2.28 -0.01,4.54 -2.3,5.57c-2.43,1.1 -4.72,0.44 -6.71,-1.48c-3.11,-3 -4.94,-6.89 -6.65,-10.63c-1.9,-4.15 -4.77,-5.38 -8.81,-5.47c-10.19,-0.24 -10.52,0.05 -10.53,10.33c0,2.33 0.14,4.52 -2.03,6.29c-1.71,1.4 -3.05,3.11 -5.58,2.13c-2.71,-1.05 -4.33,-2.94 -4.39,-5.91c-0.05,-3.5 -0.01,-7 0,-10.49Zm18.91,-14.29c1.51,-0.47 4.31,1.02 4.89,-2.12c0.44,-2.35 -6.02,-11.54 -7.27,-10.75c-3.35,2.11 -2.89,6.13 -3.41,9.39c-0.68,4.26 2.95,3.28 5.79,3.48Zm8.49,100.92c-9.27,0.34 -18.03,-1.11 -24.9,-8.02c-8.84,-8.88 -9.33,-19.3 -4.92,-30.94c3.48,-9.2 12.74,-15.18 22.68,-14.94c5.22,0.13 10.6,-1.34 15.65,1.32c3.14,1.65 4.84,3.9 3.63,7.53c-1.31,3.92 -4.32,4.69 -7.94,3.92c-6.38,-1.34 -12.45,-1.76 -18.45,2c-5.75,3.61 -5.89,9.32 -5.93,14.67c-0.04,5.06 5.57,10.24 10.6,11.47c7.88,1.93 15.61,1.15 23.14,-1.55c4.16,-1.49 6.85,0.41 8.47,3.67c1.7,3.43 -0.41,6.14 -3.32,7.78c-5.82,3.29 -12.3,3.15 -18.71,3.09Zm-523.49,-54.97c6.32,0 12.64,-0.05 18.96,0.02c3.52,0.04 7.15,1.04 7.03,5.12c-0.11,3.91 -3.39,4.95 -7.18,4.92c-10.62,-0.1 -10.62,0.01 -10.62,10.45l0,21.95c0,0.83 0.03,1.66 -0.01,2.49c-0.22,5.25 -2.9,9 -6.45,9.03c-3.56,0.03 -6.45,-3.7 -6.51,-8.94c-0.11,-10.31 -0.15,-20.62 0.04,-30.93c0.06,-3.21 -0.78,-4.43 -4.12,-4.18c-3.8,0.28 -7.65,0.12 -11.47,0.05c-3.55,-0.07 -5.4,-1.93 -5.47,-5.51c-0.08,-3.72 2.78,-4.3 5.34,-4.39c6.82,-0.23 13.64,-0.08 20.46,-0.08Z" style="fill:#fe6b00;fill-rule:nonzero;"/><path d="M377.162,559.424c-21.82,0 -43.65,0.35 -65.47,-0.13c-14.36,-0.32 -28.92,-0.14 -43,-3.11c-14.19,-3 -27.75,-8.23 -41.09,-14.21c-11.54,-5.17 -21.08,-12.53 -29.22,-21.79c-7.52,-8.56 -14.08,-17.9 -19.5,-27.99c-8.57,-15.94 -16.5,-32.24 -19.41,-50.24c-1.6,-9.89 -3.7,-19.82 -3.5,-29.96c0.31,-15.44 -1,-30.94 1.07,-46.32c1.21,-8.97 2.76,-17.93 5.87,-26.51c1.15,-3.18 2.38,-3.39 4.15,-0.45c6.07,10.09 14.05,18.26 24.06,24.54c11.29,7.09 23.18,12.93 36.2,15.72c8.82,1.89 17.91,0.25 26.57,-1.75c15.09,-3.5 28.43,-10.22 39.18,-22.07c6.35,-7 9.04,-14.91 9.75,-23.73c0.56,-6.95 1.22,-14.2 -0.1,-20.94c-3.66,-18.73 -1.77,-37.8 -4.46,-56.61c-2.03,-14.17 -2.38,-28.61 -6.26,-42.51c-3.47,-12.41 -8.21,-24.39 -12.86,-36.4c-1.78,-4.61 -3.33,-9.32 -4.95,-14c-0.33,-0.95 -0.58,-2.23 0.24,-2.82c1.3,-0.94 2.04,0.51 2.83,1.24c3.01,2.79 5.44,6.08 8.5,8.92c6.08,5.65 13.17,8.79 20.77,11.2c3.39,1.08 4.2,2.78 2.48,5.89c-1.2,2.17 -2.04,4.39 -2.17,7.03c-0.2,3.93 1.7,5.98 5.05,6.93c3.34,0.94 5.06,-1.07 6.62,-3.82c5.16,-9.1 8.39,-19.05 13,-28.41c3.06,-6.21 6.65,-8.96 14.06,-8.77c42.76,1.06 85.52,-1.51 128.29,-0.81c5.96,0.1 11.89,-0.11 17.87,0.83c3.71,0.58 6.2,2.42 8.03,5.07c5.22,7.53 7.99,16.35 12.26,24.39c1.45,2.72 -0.4,2.93 -2.16,2.64c-6.08,-1 -12.25,-0.59 -18.31,-1.33c-2.13,-0.26 -4.25,-0.61 -6.39,-0.61c-45.65,-0.01 -91.29,0.04 -136.93,-0.09c-4.32,-0.01 -7.23,1.19 -9.3,5.03c-6.23,11.5 -15.14,21.25 -21.38,32.8c-2.32,4.29 -1.44,6.99 2.05,9.22c3.37,2.16 6.91,1.48 9.18,-1.78c4.06,-5.82 7.54,-12.05 11.61,-17.86c2.93,-4.19 6.46,-7.95 9.66,-11.95c2.05,-2.56 3.89,-2.84 5.72,0.21c5.99,9.96 14.82,17.4 22.86,25.53c3.73,3.77 7.14,3.96 12.04,0.62c8.53,-5.82 14.67,-13.85 19.66,-22.72c1.99,-3.54 4.09,-5.43 8.47,-5.13c6.3,0.43 12.75,-0.57 18.96,0.29c6.95,0.97 7.81,9.01 12.58,12.86c3.61,2.91 6.61,6.57 9.97,9.81c7.14,6.88 12.13,6.91 19.23,0c5.85,-5.69 11.61,-11.47 17.3,-17.33c1.76,-1.81 3.57,-2.74 6.13,-2.55c4.94,0.36 9.93,-0.54 14.84,0.98c4.96,1.54 6.65,5.49 3.78,9.9c-5.74,8.82 -13.55,15.85 -20.64,23.49c-7.32,7.89 -7.35,7.96 -2.21,17.41c5.97,11 8.16,22.55 6.57,35.36c-1.79,14.48 -6.9,27.42 -13.94,39.83c-2.96,5.21 -7.27,9.42 -11.52,13.62c-5.67,5.61 -5.31,8.3 1.45,12.12c23.02,13.02 36.57,33.36 41.12,58.66c3.06,17.02 2.16,34.67 0.67,52.12c-1.53,17.91 -7.21,34.31 -16.72,49.28c-10.1,15.9 -21.78,30.51 -40.48,37.1c-6.51,2.29 -13.28,4.02 -20.27,4.04c-22.81,0.07 -45.63,0.02 -68.46,0.02Zm47.95,-188.95c-10.5,0 -21,0.18 -31.49,-0.04c-15.66,-0.32 -27.46,6.99 -36.51,18.88c-14.03,18.45 -19.32,40.04 -19.99,62.74c-0.3,10.29 -0.43,20.65 -1.51,30.81c-1.34,12.65 -3.97,25.09 -0.67,37.77c2.34,8.99 5.99,17.42 13.33,23.28c9.7,7.75 31.96,8.38 40.5,0.75c8.59,-7.68 18.06,-9.32 28.74,-8.27c1.98,0.19 4.02,0.22 5.99,-0.01c4.15,-0.5 7.22,0.84 10.04,4.04c6.85,7.77 16.38,9.15 25.58,7.58c22.65,-3.88 42.18,-28.46 39.59,-51.84c-0.92,-8.3 -1.66,-15.86 2.01,-23.91c4.71,-10.34 4.89,-21.72 5.47,-33.05c0.57,-11.14 1.4,-22 -2.11,-32.89c-7.65,-23.71 -21.16,-34.47 -45.99,-35.74c-10.97,-0.56 -21.99,-0.1 -32.98,-0.1Zm-9.92,-15.99c9.57,0 17.4,0.24 25.22,-0.08c5.24,-0.21 10.57,-0.56 15.46,-2.9c17.84,-8.52 28.9,-22.64 34.06,-41.51c3.08,-11.28 3.37,-22.65 2.19,-34.37c-1.66,-16.51 -10.38,-27.44 -24.82,-33.66c-12.32,-5.31 -25.6,-7.5 -39.13,-7.43c-8.29,0.04 -16.57,0.58 -24.84,0.82c-19.18,0.56 -37.4,4.21 -54.25,13.62c-7.93,4.43 -14.51,10.01 -18.32,18.74c-4.03,9.24 -5.2,18.74 -4.79,28.6c0.53,12.68 4.71,23.98 13.55,33.18c11.61,12.09 26.67,18.11 42.27,22.97c11.51,3.58 23.41,1.41 33.4,2.02Zm-186.91,64.92c-7.04,0.15 -13.38,0.52 -19.13,-2.87c-0.87,-0.51 -1.97,-0.95 -1.73,-2.1c0.27,-1.31 1.58,-0.84 2.49,-0.96c16.22,-2.15 32.31,-4.96 47.33,-11.79c3.26,-1.48 4.42,-0.83 5.99,2.18c8.78,16.89 23.24,27.65 39.77,36.04c1.59,0.8 3.44,1.26 5.21,1.48c2.57,0.32 5.4,-0.1 6.39,-2.71c1.1,-2.92 0.48,-6 -2.3,-8.02c-2.27,-1.65 -4.7,-3.07 -7.1,-4.54c-14.84,-9.1 -29.08,-18.49 -32.53,-37.68c-1.11,-6.19 -8.47,-8.3 -13.5,-4.42c-5.42,4.19 -11.26,7.48 -17.52,10.14c-17.88,7.59 -36.4,9.39 -55.4,5.82c-2.83,-0.53 -5.04,-0.25 -6.72,1.73c-1.66,1.96 -2.08,4.36 -0.94,6.99c2.07,4.79 5.46,8.69 10.01,10.65c6.25,2.69 9.87,7.33 12.73,13.03c7.41,14.76 15.99,29.04 16.83,46.26c0.12,2.38 0.06,5.34 2.02,7.49c3.11,3.41 7.49,3.02 11.72,-1.11c11.05,-10.79 24.47,-17.41 39.1,-21.62c9,-2.59 18.38,-1.99 27.65,-1.93c3.59,0.02 6.21,-1.69 7.08,-5.05c0.88,-3.39 -0.64,-6.31 -3.8,-7.88c-2.8,-1.39 -5.75,-2.61 -8.76,-3.41c-15.64,-4.13 -26.62,-14.2 -35.07,-27.43c-1.99,-3.12 -4.21,-4.09 -7.44,-2.53c-7.31,3.54 -15.01,5.02 -22.38,4.24Zm155.03,-236.87c4.91,0.05 9.41,-3.8 9.61,-8.2c0.23,-5.14 -4.28,-9.66 -9.75,-9.79c-3.96,-0.09 -8.88,4.39 -9.13,8.31c-0.31,5.04 4.09,9.63 9.27,9.68Zm73.29,-1c5.99,0.09 9.38,-3.21 9.31,-9.05c-0.04,-3.35 -5.31,-8.73 -8.74,-8.91c-3.56,-0.18 -9.2,5.24 -9.25,8.89c-0.08,5.84 2.93,8.99 8.68,9.07Zm-45.64,-36.98c-2.99,0 -6,-0.23 -8.96,0.06c-4.61,0.45 -4.18,-2.1 -2.67,-4.61c2.71,-4.51 5.8,-8.79 8.8,-13.12c1.68,-2.42 3.3,-2.57 5.52,-0.23c3.79,4.01 6.51,8.72 9.39,13.32c1.72,2.75 1.35,4.75 -2.61,4.61c-3.15,-0.12 -6.31,-0.03 -9.47,-0.03Z" style="fill:#0d6d17;fill-rule:nonzero;"/><path d="M425.112,370.474c11,0 22.02,-0.46 32.99,0.09c24.83,1.27 38.34,12.03 45.99,35.74c3.51,10.89 2.68,21.74 2.11,32.89c-0.58,11.33 -0.76,22.71 -5.47,33.05c-3.67,8.05 -2.93,15.61 -2.01,23.91c2.58,23.39 -16.95,47.97 -39.59,51.84c-9.19,1.57 -18.72,0.19 -25.58,-7.58c-2.82,-3.2 -5.89,-4.53 -10.04,-4.04c-1.97,0.24 -4.01,0.21 -5.99,0.01c-10.68,-1.05 -20.15,0.58 -28.74,8.27c-8.54,7.64 -30.79,7.01 -40.5,-0.75c-7.34,-5.86 -10.99,-14.3 -13.33,-23.28c-3.3,-12.68 -0.67,-25.13 0.67,-37.77c1.08,-10.16 1.21,-20.52 1.51,-30.81c0.66,-22.7 5.96,-44.29 19.99,-62.74c9.04,-11.89 20.85,-19.21 36.51,-18.88c10.48,0.23 20.98,0.05 31.48,0.05Zm0.82,14c-11.33,0 -22.66,-0.2 -33.98,0.09c-5.12,0.13 -10.29,0.66 -14.74,4.06c-7.57,5.78 -12.65,13.21 -16.34,21.9c-5.01,11.81 -8.79,23.82 -10.2,36.7c-0.53,4.81 0.04,9.77 -1.54,14.6c-0.99,3.03 -1.05,6.53 3.77,7.76c2.82,0.72 4.76,3.57 5.83,6.35c1.52,3.93 3.44,2.57 4.72,0.31c1.78,-3.13 4.42,-5.37 6.96,-7.66c5.49,-4.93 13.12,-4.14 15.68,1.54c1.51,3.35 3.13,6.68 3.88,10.37c1.29,6.37 1.44,6.38 7.24,3.89c5.05,-2.16 8.96,-0.89 11.26,4.15c3.7,8.11 5.8,16.49 3.49,25.5c-0.6,2.35 -3.86,4.97 -1.29,6.93c1.71,1.31 5.14,0.23 7.77,0.51c2.9,0.31 3.64,-0.83 3.55,-3.6c-0.19,-6.32 -0.48,-12.69 0.05,-18.98c0.59,-7.06 2.7,-13.82 6.66,-19.86c1.65,-2.52 3.68,-3.28 6.52,-1.9c2.89,1.41 5.89,2.61 8.84,3.9c2.1,0.92 3.62,1.46 5.01,-1.53c1.54,-3.31 4.11,-5.96 7.25,-8.33c4.19,-3.16 7.04,-2.98 11.24,0.01c3.68,2.63 5.1,6.65 8.04,9.62c0.74,0.75 0.75,2.41 2.34,1.1c1.89,-1.55 4.15,-2.84 5.58,-4.74c7.13,-9.51 10.6,-20.26 10.42,-32.2c-0.13,-8.33 0.04,-16.66 -0.04,-24.99c-0.17,-17.83 -15.68,-35.71 -35.48,-35.53c-10.83,0.11 -21.66,0.03 -32.49,0.03Zm-81.98,122.38c-0.23,8.67 1.28,14.52 6.09,20.81c4.49,5.86 10.06,10.1 17.89,10.81c15.97,1.45 32.35,-18.73 30.98,-32.37c-0.27,-2.66 1.41,-6.1 -1.75,-7.73c-2.85,-1.47 -4.49,1.79 -6.51,3.01c-5.5,3.3 -7.72,2.73 -9.68,-3.48c-1.27,-4.01 -2.13,-8.15 -3.4,-12.16c-0.71,-2.23 -2.19,-3.46 -4.24,-1.15c-2.51,2.83 -5.61,5.04 -7.67,8.39c-2.52,4.09 -6.37,4.28 -9.79,0.85c-1.26,-1.26 -2.12,-2.9 -3.32,-4.23c-3.22,-3.57 -5.53,-3.17 -6.73,1.47c-1.35,5.22 -2.06,10.58 -1.87,15.78Zm90.97,0.99c0,2.35 -0.07,4.02 0.01,5.68c0.75,15.68 7.75,21.05 21.88,21.85c10.05,0.57 17.83,-3.91 22.95,-12.41c5.2,-8.63 8.82,-17.77 6.3,-28.26c-0.73,-3.04 -1.52,-4.28 -4.39,-1.69c-2.04,1.84 -4.55,3.14 -6.66,4.92c-3.51,2.97 -5.61,1.51 -7.23,-2c-1.29,-2.8 -2.55,-5.61 -3.86,-8.4c-1.25,-2.66 -2.67,-2.84 -3.99,-0.09c-1.19,2.49 -2.45,4.91 -3.37,7.56c-1.7,4.96 -4.6,6.08 -9.49,4.41c-2.26,-0.77 -4.09,-2.1 -5.57,-3.91c-2.79,-3.4 -4.29,-2.23 -5.75,1.25c-1.63,3.91 -0.26,7.88 -0.83,11.09Zm-19.73,-153.36c-9.99,-0.61 -21.89,1.56 -33.42,-2.03c-15.59,-4.86 -30.65,-10.88 -42.27,-22.97c-8.84,-9.2 -13.02,-20.5 -13.55,-33.18c-0.41,-9.86 0.75,-19.36 4.79,-28.6c3.81,-8.73 10.39,-14.31 18.32,-18.74c16.86,-9.41 35.07,-13.06 54.25,-13.62c8.27,-0.24 16.55,-0.78 24.84,-0.82c13.53,-0.07 26.81,2.13 39.13,7.43c14.45,6.22 23.16,17.16 24.82,33.66c1.18,11.72 0.9,23.09 -2.19,34.37c-5.16,18.87 -16.22,33 -34.06,41.51c-4.89,2.34 -10.22,2.68 -15.46,2.9c-7.8,0.33 -15.63,0.09 -25.2,0.09Zm2.66,-105.97c-34.71,-0.26 -29.79,-0.47 -54.63,8.14c-8.73,3.03 -15.96,8.67 -20.14,17.4c-4.15,8.66 -3.7,17.9 -2.73,26.98c0.51,4.8 1.76,9.72 4.6,14.02c4.45,6.73 10.83,11.09 17.77,14.66c12.7,6.52 25.71,12.06 40.47,11.82c12.48,-0.2 25,-0.58 37.44,0.1c13.81,0.76 21.93,-7.36 28.66,-17.25c5.98,-8.78 9.92,-18.85 11.25,-29.43c1.24,-9.87 1.37,-19.94 -4.58,-28.86c-7.89,-11.83 -19.99,-16.04 -33.16,-17.41c-8.23,-0.87 -16.62,-0.17 -24.95,-0.17Zm-189.57,170.89c7.37,0.77 15.06,-0.7 22.39,-4.24c3.23,-1.56 5.45,-0.59 7.44,2.53c8.44,13.22 19.42,23.29 35.07,27.43c3.01,0.8 5.97,2.01 8.76,3.41c3.15,1.57 4.67,4.49 3.8,7.88c-0.87,3.35 -3.49,5.07 -7.08,5.05c-9.27,-0.05 -18.65,-0.66 -27.65,1.93c-14.63,4.21 -28.05,10.83 -39.1,21.62c-4.23,4.13 -8.61,4.53 -11.72,1.11c-1.96,-2.15 -1.9,-5.11 -2.02,-7.49c-0.84,-17.22 -9.43,-31.5 -16.83,-46.26c-2.86,-5.7 -6.48,-10.34 -12.73,-13.03c-4.55,-1.96 -7.94,-5.86 -10.01,-10.65c-1.14,-2.63 -0.72,-5.03 0.94,-6.99c1.68,-1.98 3.89,-2.26 6.72,-1.73c19.01,3.58 37.53,1.78 55.4,-5.82c6.26,-2.66 12.1,-5.95 17.52,-10.14c5.03,-3.88 12.39,-1.77 13.5,4.42c3.45,19.19 17.69,28.58 32.53,37.68c2.39,1.47 4.83,2.89 7.1,4.54c2.78,2.02 3.4,5.11 2.3,8.02c-0.99,2.62 -3.82,3.03 -6.39,2.71c-1.78,-0.22 -3.63,-0.67 -5.21,-1.48c-16.53,-8.39 -30.99,-19.15 -39.77,-36.04c-1.56,-3.01 -2.73,-3.67 -5.99,-2.18c-15.03,6.82 -31.11,9.64 -47.33,11.79c-0.91,0.12 -2.22,-0.35 -2.49,0.96c-0.24,1.15 0.87,1.59 1.73,2.1c5.74,3.39 12.08,3.03 19.12,2.87Zm1.23,50.87c11.49,-11.39 25.84,-15.95 40.41,-21.6c-8.73,-5.09 -14.46,-11.75 -19.25,-19.2c-1.17,-1.82 -1.97,-1.26 -3.24,-0.88c-9.36,2.78 -18.71,5.62 -28.64,2.92c-0.74,-0.2 -1.91,-0.17 -2.38,0.27c-1.18,1.13 0.31,2.18 0.73,2.97c5.87,10.86 10.49,22.13 12.37,35.52Zm153.8,-287.74c-5.18,-0.05 -9.58,-4.64 -9.27,-9.68c0.24,-3.92 5.16,-8.4 9.13,-8.31c5.47,0.13 9.98,4.65 9.75,9.79c-0.2,4.4 -4.7,8.24 -9.61,8.2Zm73.29,-1c-5.75,-0.08 -8.76,-3.23 -8.68,-9.07c0.05,-3.65 5.69,-9.07 9.25,-8.89c3.42,0.18 8.7,5.56 8.74,8.91c0.07,5.84 -3.32,9.13 -9.31,9.05Z" style="fill-rule:nonzero;"/><path d="M425.932,384.474c10.83,0 21.66,0.08 32.48,-0.02c19.8,-0.18 35.31,17.69 35.48,35.53c0.08,8.33 -0.09,16.66 0.04,24.99c0.18,11.94 -3.28,22.69 -10.42,32.2c-1.43,1.9 -3.69,3.19 -5.58,4.74c-1.59,1.3 -1.6,-0.35 -2.34,-1.1c-2.93,-2.98 -4.35,-7 -8.04,-9.62c-4.2,-3 -7.06,-3.17 -11.24,-0.01c-3.14,2.37 -5.71,5.02 -7.25,8.33c-1.39,2.99 -2.91,2.45 -5.01,1.53c-2.95,-1.29 -5.95,-2.49 -8.84,-3.9c-2.84,-1.38 -4.87,-0.62 -6.52,1.9c-3.96,6.04 -6.06,12.8 -6.66,19.86c-0.53,6.29 -0.24,12.65 -0.05,18.98c0.09,2.78 -0.66,3.91 -3.55,3.6c-2.63,-0.28 -6.06,0.8 -7.77,-0.51c-2.57,-1.96 0.69,-4.58 1.29,-6.93c2.31,-9 0.21,-17.39 -3.49,-25.5c-2.3,-5.04 -6.21,-6.31 -11.26,-4.15c-5.8,2.49 -5.95,2.48 -7.24,-3.89c-0.75,-3.69 -2.37,-7.02 -3.88,-10.37c-2.56,-5.67 -10.18,-6.47 -15.68,-1.54c-2.54,2.28 -5.18,4.52 -6.96,7.66c-1.28,2.26 -3.21,3.62 -4.72,-0.31c-1.08,-2.79 -3.01,-5.63 -5.83,-6.35c-4.82,-1.23 -4.76,-4.74 -3.77,-7.76c1.59,-4.83 1.01,-9.79 1.54,-14.6c1.42,-12.88 5.2,-24.89 10.2,-36.7c3.68,-8.69 8.77,-16.13 16.34,-21.9c4.45,-3.39 9.62,-3.92 14.74,-4.06c11.33,-0.3 22.66,-0.1 33.99,-0.1Z" style="fill:#feeb78;fill-rule:nonzero;"/><path d="M343.952,506.854c-0.19,-5.2 0.52,-10.57 1.87,-15.79c1.2,-4.64 3.51,-5.04 6.73,-1.47c1.2,1.33 2.07,2.97 3.32,4.23c3.41,3.43 7.27,3.24 9.79,-0.85c2.06,-3.34 5.16,-5.55 7.67,-8.39c2.05,-2.31 3.53,-1.08 4.24,1.15c1.27,4.01 2.13,8.15 3.4,12.16c1.96,6.2 4.18,6.77 9.68,3.48c2.03,-1.21 3.67,-4.47 6.51,-3.01c3.17,1.63 1.48,5.07 1.75,7.73c1.38,13.64 -15,33.82 -30.98,32.37c-7.83,-0.71 -13.4,-4.95 -17.89,-10.81c-4.81,-6.28 -6.32,-12.13 -6.09,-20.8Zm90.97,0.99c0.57,-3.21 -0.81,-7.18 0.83,-11.08c1.46,-3.48 2.96,-4.66 5.75,-1.25c1.48,1.8 3.32,3.14 5.57,3.91c4.89,1.67 7.79,0.55 9.49,-4.41c0.91,-2.65 2.18,-5.08 3.37,-7.56c1.31,-2.75 2.74,-2.57 3.99,0.09c1.31,2.79 2.57,5.6 3.86,8.4c1.62,3.51 3.72,4.97 7.23,2c2.1,-1.78 4.62,-3.08 6.66,-4.92c2.87,-2.59 3.66,-1.36 4.39,1.69c2.52,10.48 -1.1,19.63 -6.3,28.26c-5.12,8.5 -12.9,12.98 -22.95,12.41c-14.13,-0.81 -21.13,-6.17 -21.88,-21.85c-0.08,-1.67 -0.01,-3.34 -0.01,-5.69Z" style="fill:#fe6b00;fill-rule:nonzero;"/><path d="M229.512,470.274c-1.88,-13.39 -6.5,-24.66 -12.37,-35.51c-0.43,-0.79 -1.91,-1.84 -0.73,-2.97c0.47,-0.45 1.64,-0.47 2.38,-0.27c9.93,2.69 19.28,-0.14 28.64,-2.92c1.27,-0.38 2.07,-0.94 3.24,0.88c4.79,7.45 10.52,14.11 19.25,19.2c-14.57,5.64 -28.92,10.2 -40.41,21.59Z" style="fill:#feeb78;fill-rule:nonzero;"/><path d="M429.942,333.654c-18.22,-1.28 -33.06,-9.13 -44.14,-23.79c-5.3,-7.02 -4.5,-12.17 2.07,-14.71c3.26,-1.26 6.76,-2.29 10.23,-2.57c13.12,-1.04 26.22,-2.04 39.42,-2.34c14.61,-0.33 17.16,7.45 19.25,19.15c1.48,8.28 -0.17,16.33 -8.81,20.41c-5.55,2.62 -11.47,4.67 -18.02,3.85Zm-28.93,-27.52c8.91,8.61 19.34,13.6 31.2,15.16c3.29,0.43 7.15,-1.19 9.5,-4.17c2.42,-3.07 1.32,-6.45 0.22,-9.79c-1.07,-3.23 -3.18,-3.85 -6.41,-3.95c-8.3,-0.24 -16.46,1.77 -24.76,1.15c-3.11,-0.23 -6.28,-0.38 -9.75,1.6Zm-14.41,-39.63c7.37,0 12.26,4.07 12.33,10.27c0.09,7.51 -5.88,13.73 -13.19,13.72c-7.01,-0.01 -12.08,-4.63 -11.72,-11.41c0.4,-7.42 4.31,-13.97 12.58,-12.58Zm56.32,7.89c0.01,-8.16 3.57,-11.46 11.23,-12.01c7.24,-0.53 11.66,5.35 11.59,11.59c-0.08,7.05 -4.42,11.93 -11.71,12.45c-6.47,0.45 -11.11,-4.89 -11.11,-12.03Z" style="fill-rule:nonzero;"/><path d="M401.012,306.134c3.47,-1.98 6.64,-1.83 9.74,-1.6c8.3,0.62 16.46,-1.39 24.76,-1.15c3.23,0.09 5.34,0.72 6.41,3.95c1.11,3.34 2.2,6.72 -0.22,9.79c-2.35,2.98 -6.21,4.61 -9.5,4.17c-11.85,-1.56 -22.28,-6.55 -31.19,-15.16Z" style="fill:#fe6b00;fill-rule:nonzero;"/></svg>